/* XPM */
static char *_9e0f99c65284a38d5449f2b0026c8e5nUGtsk7gv4ovsY8s[] = {
/* columns rows colors chars-per-pixel */
"32 32 2 1 ",
"  c black",
". c #4CAF50",
/* pixels */
".............. . ...............",
"..............   ...............",
".............. . ...............",
"................................",
"................................",
"................................",
"................................",
"................................",
"................................",
"................................",
"................................",
"................................",
"................................",
".............................   ",
"  .  ........................ ..",
".   .........................   ",
".   .........................   ",
"................................",
"................................",
"................................",
"................................",
"................................",
"................................",
"................................",
"................................",
"................................",
"................................",
"................................",
"..............   ...............",
".............. .................",
"............... ................",
"..............   ..............."
};
