/* XPM */
static char *_05cbf254f564e52c93cc0e30a2c5047IF1cSx18cLFx0rJT[] = {
/* columns rows colors chars-per-pixel */
"64 64 2 1 ",
"  c #C62828",
". c gray62",
/* pixels */
"                                                                ",
" .............................................................. ",
" .............................................................. ",
" .............................................................. ",
" .............................................................. ",
" .............................................................. ",
" .............................................................. ",
" .............................................................. ",
" .............................................................. ",
" .............................................................. ",
" .............................................................. ",
" .............................................................. ",
" .............................................................. ",
" .............................................................. ",
" .............................................................. ",
" .............................................................. ",
" .............................................................. ",
" .............................................................. ",
" .............................................................. ",
" .............................................................. ",
" .............................................................. ",
" .............................................................. ",
" .............................................................. ",
" .............................................................. ",
" .............................................................. ",
" .............................................................. ",
" .............................................................. ",
" .............................................................. ",
" .............................................................. ",
" .............................................................. ",
" .............................................................. ",
" .............................................................. ",
" .............................................................. ",
" .............................................................. ",
" .............................................................. ",
" .............................................................. ",
" .............................................................. ",
" .............................................................. ",
" .............................................................. ",
" .............................................................. ",
" .............................................................. ",
" .............................................................. ",
" .............................................................. ",
" .............................................................. ",
" .............................................................. ",
" .............................................................. ",
" .............................................................. ",
" .............................................................. ",
" .............................................................. ",
" .............................................................. ",
" .............................................................. ",
" .............................................................. ",
" .............................................................. ",
" .............................................................. ",
" .............................................................. ",
" .............................................................. ",
" .............................................................. ",
" .............................................................. ",
" .............................................................. ",
" .............................................................. ",
" .............................................................. ",
" .............................................................. ",
" .............................................................. ",
"                                                                "
};
